<svg xmlns="http://www.w3.org/2000/svg" xmlns:xlink="http://www.w3.org/1999/xlink" version="1.1" viewBox="0 0 96 96" x="0px" y="0px"><path d="M16.584 84.196c-1.396 0-2.78-0.208-4.124-0.62-7.376-2.268-11.532-10.12-9.26-17.5l8.328-27.036c-5.632-1.88-9.528-7.132-9.528-13.236 0-7.72 6.28-14 14-14h44c7.724 0 14 6.28 14 14s-6.276 14-14 14h-16.64c-1.66 0-3.1 1.064-3.584 2.648l-9.812 31.86c-1.82 5.912-7.2 9.884-13.38 9.884zM16 15.804c-5.512 0-10 4.488-10 10 0 4.904 3.528 9.036 8.384 9.832 0.572 0.088 1.072 0.424 1.376 0.916 0.304 0.496 0.384 1.096 0.212 1.648l-8.948 29.056c-1.624 5.26 1.344 10.876 6.616 12.5 5.224 1.616 10.908-1.44 12.5-6.612l9.812-31.86c1.004-3.272 3.984-5.472 7.412-5.472h16.636c5.508 0 10-4.488 10-10s-4.492-10-10-10l-44-0.008z" fill="#000000"></path><path d="M92 27.804h-20c-1.104 0-2-0.9-2-2 0-1.104 0.896-2 2-2h20c1.1 0 2 0.896 2 2s-0.9 2-2 2z" fill="#000000"></path><path d="M56 15.804h4v20h-4v-20z" fill="#000000"></path><path d="M24 23.804h-4c-1.104 0-2-0.9-2-2 0-1.104 0.896-2 2-2h4c1.104 0 2 0.896 2 2s-0.9 2-2 2z" fill="#000000"></path><path d="M24 31.804h-4c-1.104 0-2-0.9-2-2 0-1.104 0.896-2 2-2h4c1.104 0 2 0.896 2 2s-0.9 2-2 2z" fill="#000000"></path><path d="M41.936 55.804h-5.936c-1.104 0-2-0.9-2-2 0-1.104 0.896-2 2-2h4.512l5.036-14.652c0.356-1.044 1.496-1.6 2.54-1.244s1.6 1.496 1.24 2.544l-5.5 16c-0.276 0.808-1.036 1.352-1.892 1.352z" fill="#000000"></path></svg>