<?xml version="1.0" encoding="utf-8"?>
<!-- Generator: Adobe Illustrator 19.1.0, SVG Export Plug-In . SVG Version: 6.00 Build 0)  -->
<svg version="1.1" id="Layer_1" xmlns="http://www.w3.org/2000/svg" xmlns:xlink="http://www.w3.org/1999/xlink" x="0px" y="0px"
	 viewBox="-257 349 96 96" style="enable-background:new -257 349 96 96;" xml:space="preserve">
<path d="M-208,403h-1.5c-8.2,0-13.5-4.7-13.5-12v-28c0-7.3,5.3-12,13.5-12h1.5c8,0,13,4.6,13,12v28C-195,398.4-200,403-208,403z
	 M-209.5,355c-2.9,0-9.5,0.8-9.5,8v28c0,7.2,6.6,8,9.5,8h1.5c4.1,0,9-1.4,9-8v-28c0-6.6-4.9-8-9-8H-209.5z"/>
<path d="M-187,443h-44c-1.1,0-2-0.9-2-2s0.9-2,2-2h44c1.1,0,2,0.9,2,2S-185.9,443-187,443z"/>
<path d="M-209,441c-1.1,0-2-0.9-2-2v-24c0-1.1,0.9-2,2-2s2,0.9,2,2v24C-207,440.1-207.9,441-209,441z"/>
<path d="M-208.2,415h-1.3c-11.7,0-21.6-10.8-21.6-23.6V375c0-1.1,0.9-2,2-2s2,0.9,2,2v16.4c0,10.6,8,19.6,17.6,19.6h1.3
	c10.6,0,17.2-10.2,17.2-19.6V375c0-1.1,0.9-2,2-2s2,0.9,2,2v16.4C-187,404.4-196.5,415-208.2,415z"/>
<path d="M-199,379h-20c-1.1,0-2-0.9-2-2s0.9-2,2-2h20c1.1,0,2,0.9,2,2S-197.9,379-199,379z"/>
</svg>
