<svg xmlns="http://www.w3.org/2000/svg" xmlns:xlink="http://www.w3.org/1999/xlink" version="1.1" viewBox="0 0 96 96" x="0px" y="0px"><path d="M64 52.704c-1.1 0-2-0.9-2-2v-6.332c0-3.66-1.856-7.352-6-7.352-4.428 0-6 3.74-6 6.94 0 1.096-0.896 2-2 2s-2-0.904-2-2c0-6.44 4.108-10.94 10-10.94 5.796 0 10 4.772 10 11.352v6.332c0 1.1-0.9 2-2 2z" fill="#000000"></path><path d="M34 44.52h-4c0-6.5 4.204-11.22 10-11.22 5.888 0 10 4.552 10 11.072h-4c0-3.256-1.572-7.072-6-7.072-4.144 0.004-6 3.628-6 7.22z" fill="#000000"></path><path d="M34 94.704c-11.028 0-20-8.976-20-20v-62.332c0-6.52 4.112-11.076 10-11.076 5.796 0 10 4.72 10 11.224v30.18c0 1.104-0.896 2-2 2s-2-0.896-2-2v-30.18c0-3.592-1.856-7.224-6-7.224-4.428 0-6 3.804-6 7.076v62.332c0 8.82 7.176 16 16 16 1.104 0 2 0.892 2 2 0 1.1-0.896 2-2 2z" fill="#000000"></path><path d="M36 72.704c-1.104 0-2-0.9-2-2v-6.148l5.068-8.78c1.036-1.788 1.46-3.704 1.188-5.368-0.272-1.672-1.208-2.984-2.772-3.888-3.84-2.212-7.104 0.3-8.74 3.128l-11.012 19.080c-0.552 0.952-1.78 1.288-2.732 0.736-0.956-0.556-1.284-1.764-0.732-2.736l11.016-19.080c3.268-5.648 9.096-7.548 14.2-4.588 2.58 1.488 4.256 3.872 4.72 6.708 0.42 2.58-0.172 5.416-1.668 8.008l-4.536 7.848v5.080c0 1.1-0.896 2-2 2z" fill="#000000"></path><path d="M62 94.704c-1.1 0-2-0.9-2-2 0-1.108 0.9-2 2-2 8.824 0 16-7.18 16-16v-62.332c0-3.256-1.572-7.076-6-7.076-4.144 0-6 3.62-6 7.224v30.18c0 1.104-0.9 2-2 2s-2-0.896-2-2v-30.18c0-6.504 4.208-11.224 10-11.224 5.892 0 10 4.556 10 11.076v62.332c0 11.024-8.972 20-20 20z" fill="#000000"></path><path d="M48 52.704c-1.104 0-2-0.9-2-2v-8c0-1.104 0.896-2 2-2s2 0.896 2 2v8c0 1.1-0.896 2-2 2z" fill="#000000"></path></svg>