<svg xmlns="http://www.w3.org/2000/svg" xmlns:xlink="http://www.w3.org/1999/xlink" version="1.1" viewBox="0 0 96 96" x="0px" y="0px"><path d="M7.964 32h-4c-1.104 0-2-0.896-2-2s0.892-2 2-2h4c1.104 0 2 0.896 2 2s-0.896 2-2 2z" fill="#000000"></path><path d="M7.964 24h-4c-1.104 0-2-0.896-2-2s0.892-2 2-2h4c1.104 0 2 0.896 2 2s-0.896 2-2 2z" fill="#000000"></path><path d="M7.964 40h-4c-1.104 0-2-0.896-2-2s0.892-2 2-2h4c1.104 0 2 0.896 2 2s-0.896 2-2 2z" fill="#000000"></path><path d="M7.964 48h-4c-1.104 0-2-0.896-2-2s0.896-2 2-2h4c1.104 0 2 0.896 2 2s-0.896 2-2 2z" fill="#000000"></path><path d="M7.964 56h-4c-1.104 0-2-0.9-2-2s0.896-2 2-2h4c1.104 0 2 0.9 2 2s-0.896 2-2 2z" fill="#000000"></path><path d="M7.964 64h-4c-1.104 0-2-0.9-2-2s0.896-2 2-2h4c1.104 0 2 0.9 2 2s-0.896 2-2 2z" fill="#000000"></path><path d="M7.964 72h-4c-1.104 0-2-0.9-2-2s0.896-2 2-2h4c1.104 0 2 0.9 2 2s-0.896 2-2 2z" fill="#000000"></path><path d="M7.964 80h-4c-1.104 0-2-0.9-2-2s0.896-2 2-2h4c1.104 0 2 0.9 2 2s-0.896 2-2 2z" fill="#000000"></path><path d="M7.964 88h-4c-1.104 0-2-0.9-2-2s0.896-2 2-2h4c1.104 0 2 0.9 2 2s-0.896 2-2 2z" fill="#000000"></path><path d="M94.040 96c-0.016 0-0.048 0-0.080 0h-92c-1.104 0-2-0.9-2-2v-92c0-0.808 0.488-1.536 1.236-1.848 0.752-0.308 1.608-0.14 2.18 0.432l91.708 91.704c0.58 0.344 0.952 0.984 0.952 1.704 0.004 1.108-0.888 2.008-1.996 2.008zM3.964 92h85.168l-85.168-85.172v85.172z" fill="#000000"></path><path d="M65.072 84c-0.024 0-0.056 0-0.080 0h-51.028c-1.104 0-2-0.9-2-2v-51.032c0-0.808 0.488-1.536 1.236-1.848 0.752-0.308 1.608-0.136 2.18 0.432l50.732 50.736c0.58 0.348 0.96 0.984 0.96 1.708 0 1.104-0.892 2.004-2 2.004zM15.964 80h44.2l-44.2-44.2v44.2z" fill="#000000"></path></svg>